<?xml version="1.0" encoding="UTF-8"?>
<svg version="1.1" xmlns="http://www.w3.org/2000/svg" width="1024" height="1024">
<path d="M0 0 C1.17400671 -0.00265183 2.34801342 -0.00530365 3.55759609 -0.00803584 C6.81774113 -0.01437753 10.07785362 -0.01626513 13.33800371 -0.01625861 C16.88459024 -0.0173306 20.43116664 -0.02412457 23.97774756 -0.03016531 C31.01299586 -0.04122613 38.04823918 -0.04688589 45.08349464 -0.05087419 C53.51069202 -0.05588862 61.93787976 -0.06661715 70.36507144 -0.07735593 C91.70528982 -0.10419161 113.04551277 -0.11924146 134.38574308 -0.13269705 C140.16860356 -0.13636832 145.95146378 -0.1403712 151.73432398 -0.14444971 C187.65097467 -0.16971548 223.56762583 -0.191757 259.48428345 -0.20417786 C267.80460423 -0.20709904 276.12492499 -0.21006659 284.44524574 -0.21308327 C285.47891223 -0.21345418 286.51257873 -0.21382509 287.57756844 -0.21420723 C321.06482596 -0.22635316 354.5520308 -0.25728141 388.03926359 -0.29900479 C422.48477071 -0.34184361 456.93025003 -0.36842548 491.37578451 -0.37365257 C496.24671279 -0.37439295 501.11764103 -0.37530362 505.98856926 -0.37631035 C506.94714777 -0.37650096 507.90572627 -0.37669158 508.89335261 -0.37688797 C524.28516753 -0.38039386 539.67691624 -0.40065644 555.06870689 -0.42710699 C570.55965303 -0.45332511 586.05052312 -0.46094811 601.54148827 -0.4500057 C610.73011307 -0.44405406 619.91847884 -0.45180703 629.10706415 -0.47983653 C635.26359519 -0.49721705 641.4199516 -0.49603224 647.57648679 -0.48046885 C651.07233523 -0.47213867 654.56769312 -0.47117798 658.06349401 -0.4930803 C681.24005304 -0.61159067 702.40838586 2.25277667 724.07708168 10.68388939 C728.17168258 12.20130579 732.01080639 12.76230946 736.35442543 13.13701439 C736.68442543 14.12701439 737.01442543 15.11701439 737.35442543 16.13701439 C739.07712522 16.99752467 739.07712522 16.99752467 741.29192543 17.63701439 C747.74946634 20.00821591 753.33397149 23.66101464 759.10808754 27.34013939 C759.85711342 27.81322533 760.6061393 28.28631126 761.37786293 28.77373314 C762.04736977 29.20387718 762.7168766 29.63402122 763.40667152 30.07719994 C765.31982812 31.23883371 765.31982812 31.23883371 767.54046059 31.59721947 C768.13906898 31.77535179 768.73767738 31.95348412 769.35442543 32.13701439 C769.68442543 33.12701439 770.01442543 34.11701439 770.35442543 35.13701439 C772.46560068 36.85238437 772.46560068 36.85238437 775.10442543 38.57451439 C781.57087518 43.13807658 787.25814294 48.34696947 792.96819496 53.8137722 C794.09478833 54.88917482 795.23615302 55.9490872 796.38176918 57.00420189 C800.80900207 61.19184335 804.39268028 65.96312378 807.98015785 70.87114525 C809.06035061 72.32724253 810.20268851 73.73682234 811.35442543 75.13701439 C812.01442543 75.13701439 812.67442543 75.13701439 813.35442543 75.13701439 C813.43176918 75.65779564 813.50911293 76.17857689 813.58880043 76.71513939 C814.67151369 80.14004869 816.63159822 82.92163202 818.60442543 85.88701439 C819.42612513 87.14737557 820.24774034 88.40779183 821.06926918 89.66826439 C822.34580369 91.61088473 823.62918598 93.54812744 824.92083168 95.48076439 C827.7712717 99.84131213 829.66117141 104.20302597 831.36223793 109.13310814 C831.68965981 109.7943972 832.01708168 110.45568626 832.35442543 111.13701439 C833.34442543 111.46701439 834.33442543 111.79701439 835.35442543 112.13701439 C835.56067543 113.41576439 835.76692543 114.69451439 835.97942543 116.01201439 C836.99395735 121.15766188 838.58788902 126.0023621 840.29192543 130.94951439 C842.81273651 138.28188266 844.82360362 145.52695778 846.35442543 153.13701439 C846.52803883 153.91123256 846.70165224 154.68545074 846.88052665 155.48313007 C847.35705913 158.15176337 847.47956671 160.58985011 847.47977459 163.29838228 C847.48352987 164.83775449 847.48352987 164.83775449 847.48736101 166.40822512 C847.48501985 167.53114173 847.48267868 168.65405834 847.48026657 169.81100273 C847.48172001 171.01233091 847.48317345 172.21365909 847.48467094 173.45139116 C847.48769953 176.79735948 847.48622968 180.14327192 847.48289298 183.48923641 C847.48036212 187.12506898 847.48361388 190.76089705 847.48613632 194.39672899 C847.48975359 200.77279455 847.48963501 207.14885165 847.48708916 213.5249176 C847.48331369 223.0062026 847.48523676 232.48748042 847.48829746 241.96876536 C847.49356955 258.90027474 847.49310429 275.83178035 847.49021855 292.76329009 C847.48770555 307.58011075 847.4870451 322.39693002 847.4882412 337.21375084 C847.48831758 338.19560138 847.48839397 339.17745193 847.48847267 340.18905552 C847.48878399 344.17444839 847.48910239 348.15984125 847.48943243 352.14523412 C847.4924932 389.55096148 847.48971515 426.95668645 847.48433553 464.36241344 C847.47958973 497.61394187 847.48001435 530.86546647 847.48479652 564.11699486 C847.49014816 601.4531833 847.49227616 638.78936961 847.48918426 676.12555838 C847.48886353 680.10379823 847.48855069 684.08203808 847.4882412 688.06027794 C847.48816212 689.03986201 847.48808304 690.01944609 847.48800157 691.02871453 C847.48686286 705.8382373 847.48819667 720.64775855 847.49072075 735.45728111 C847.49357564 752.29200753 847.49287451 769.12672959 847.48744 785.96145546 C847.48449704 795.38968835 847.48432165 804.8179118 847.48808618 814.24614445 C847.49032152 820.53694501 847.48894579 826.82773796 847.48458141 833.11853739 C847.48219334 836.7073719 847.48140851 840.29618757 847.48498739 843.88502151 C847.48879696 847.7443665 847.48493584 851.60368147 847.48026657 855.46302605 C847.48260774 856.58594266 847.4849489 857.70885927 847.48736101 858.86580366 C847.4848575 859.8920518 847.48235398 860.91829993 847.47977459 861.9756465 C847.47967296 863.29988174 847.47967296 863.29988174 847.47956926 864.65086922 C847.34937453 867.23735716 846.9245527 869.61363457 846.35442543 872.13701439 C846.11030922 873.22466087 846.11030922 873.22466087 845.86126137 874.33428001 C843.57821982 883.98706503 841.13818897 893.23131927 837.35833168 902.41435814 C836.02377871 906.03374887 835.58014681 909.29975088 835.35442543 913.13701439 C834.36442543 913.46701439 833.37442543 913.79701439 832.35442543 914.13701439 C831.23073535 916.38356873 831.23073535 916.38356873 830.29192543 919.19951439 C827.81695463 925.54305493 824.4809791 931.02460161 820.74480629 936.70366478 C820.32207436 937.35198265 819.89934242 938.00030052 819.46380043 938.66826439 C819.08191566 939.24125267 818.7000309 939.81424095 818.30657387 940.40459251 C817.24440251 942.13561478 817.24440251 942.13561478 816.91008949 944.29131126 C816.72672035 944.9003933 816.54335121 945.50947533 816.35442543 946.13701439 C815.36442543 946.46701439 814.37442543 946.79701439 813.35442543 947.13701439 C813.35442543 947.79701439 813.35442543 948.45701439 813.35442543 949.13701439 C811.7095046 950.8251468 810.03881479 952.48826091 808.35442543 954.13701439 C806.89628048 955.91191974 805.45880832 957.7039993 804.04192543 959.51201439 C800.73668843 963.60918837 797.38980819 967.12804479 793.27630043 970.40654564 C791.16815991 972.21296502 791.16815991 972.21296502 789.03801918 975.00810814 C786.30190468 978.3675818 783.14544226 980.83426365 779.66692543 983.38701439 C775.34370877 986.56247351 775.34370877 986.56247351 771.35442543 990.13701439 C770.69442543 990.79701439 770.03442543 991.45701439 769.35442543 992.13701439 C769.02442543 992.79701439 768.69442543 993.45701439 768.35442543 994.13701439 C767.61579262 994.27623314 766.87715981 994.41545189 766.11614418 994.55888939 C762.8555844 995.24143938 760.9151885 996.51965691 758.16692543 998.38701439 C752.29975655 1002.24303496 746.28115255 1005.76997329 739.62786293 1008.08623314 C738.87762856 1008.43299095 738.12739418 1008.77974876 737.35442543 1009.13701439 C737.02442543 1010.12701439 736.69442543 1011.11701439 736.35442543 1012.13701439 C735.07567543 1012.34326439 733.79692543 1012.54951439 732.47942543 1012.76201439 C727.33377794 1013.77654631 722.48907772 1015.37047798 717.54192543 1017.07451439 C710.20955716 1019.59532547 702.96448204 1021.60619258 695.35442543 1023.13701439 C694.58020726 1023.31062779 693.80598908 1023.4842412 693.00830975 1023.66311561 C690.33967645 1024.13964809 687.90158971 1024.26215567 685.19305754 1024.26236355 C683.65368533 1024.26611883 683.65368533 1024.26611883 682.0832147 1024.26994997 C680.96029809 1024.26760881 679.83738148 1024.26526764 678.68043709 1024.26285553 C677.47910891 1024.26430897 676.27778072 1024.26576241 675.04004866 1024.2672599 C671.69408034 1024.27028849 668.34816789 1024.26881863 665.00220341 1024.26548194 C661.36637084 1024.26295108 657.73054277 1024.26620284 654.09471083 1024.26872528 C647.71864527 1024.27234255 641.34258817 1024.27222397 634.96652222 1024.26967812 C625.48523722 1024.26590265 616.0039594 1024.26782572 606.52267446 1024.27088642 C589.59116508 1024.2761585 572.65965947 1024.27569325 555.72814973 1024.27280751 C540.91132907 1024.27029451 526.0945098 1024.26963406 511.27768898 1024.27083015 C509.80491316 1024.27094473 509.80491316 1024.27094473 508.3023843 1024.27106162 C504.31699143 1024.27137295 500.33159857 1024.27169135 496.3462057 1024.27202139 C458.94047834 1024.27508216 421.53475337 1024.27230411 384.12902638 1024.26692449 C350.87749795 1024.26217869 317.62597335 1024.26260331 284.37444496 1024.26738548 C247.03825652 1024.27273712 209.70207021 1024.27486512 172.36588144 1024.27177322 C168.38764159 1024.27145249 164.40940174 1024.27113965 160.43116188 1024.27083015 C159.45157781 1024.27075108 158.47199373 1024.270672 157.46272529 1024.27059053 C142.65320252 1024.26945182 127.84368127 1024.27078563 113.03415871 1024.27330971 C96.19943229 1024.2761646 79.36471023 1024.27546347 62.52998435 1024.27002896 C53.10175147 1024.267086 43.67352802 1024.26691061 34.24529537 1024.27067514 C27.95449481 1024.27291048 21.66370186 1024.27153475 15.37290243 1024.26717037 C11.78406792 1024.2647823 8.19525225 1024.26399746 4.60641831 1024.26757635 C0.74707332 1024.27138591 -3.11224165 1024.2675248 -6.97158623 1024.26285553 C-8.09450284 1024.2651967 -9.21741945 1024.26753786 -10.37436384 1024.26994997 C-11.40061198 1024.26744645 -12.42686011 1024.26494294 -13.48420668 1024.26236355 C-14.36703018 1024.26229579 -15.24985367 1024.26222803 -16.1594294 1024.26215822 C-18.74591734 1024.13196349 -21.12219475 1023.70714166 -23.64557457 1023.13701439 C-24.73322105 1022.89289818 -24.73322105 1022.89289818 -25.84284019 1022.64385033 C-35.49562522 1020.36080878 -44.73987945 1017.92077793 -53.92291832 1014.14092064 C-57.54230905 1012.80636767 -60.80831106 1012.36273577 -64.64557457 1012.13701439 C-65.14057457 1010.65201439 -65.14057457 1010.65201439 -65.64557457 1009.13701439 C-67.76052808 1008.12061936 -67.76052808 1008.12061936 -70.45807457 1007.26201439 C-79.59594146 1003.70166336 -87.46723731 997.95793832 -95.54596519 992.47807884 C-97.61006293 991.10570127 -97.61006293 991.10570127 -99.79572105 990.07549095 C-102.23228402 988.83936213 -103.74728812 987.09293382 -105.64557457 985.13701439 C-107.2789509 983.80904399 -108.92598579 982.49777492 -110.58307457 981.19951439 C-121.16320611 972.57762291 -130.1833946 962.91494654 -138.40338707 952.03545189 C-141.50672232 947.96028875 -141.50672232 947.96028875 -145.64557457 945.13701439 C-145.78608238 944.39580345 -145.92659019 943.65459251 -146.07135582 942.89092064 C-146.74365263 939.66664004 -147.97990749 937.78676554 -149.83307457 935.07451439 C-153.10811219 930.10804788 -155.81014581 925.02722221 -158.38385582 919.66826439 C-160.26640311 915.71069493 -160.26640311 915.71069493 -163.64557457 913.13701439 C-164.06744957 911.48467064 -164.06744957 911.48467064 -164.39557457 909.19951439 C-165.13219167 905.08141879 -166.23004581 901.29328882 -167.64240161 897.37211475 C-175.18115636 876.13683245 -177.40469802 855.33485252 -177.27550962 832.89683239 C-177.26075238 829.3387592 -177.27563256 825.78077198 -177.2863946 822.22270113 C-177.30123974 816.0138224 -177.29789164 809.80517129 -177.2819767 803.59629822 C-177.25837642 794.36341214 -177.26381098 785.13069468 -177.2746856 775.8977929 C-177.293196 759.40252925 -177.28362467 742.90737423 -177.26220796 726.41211951 C-177.24360597 711.98193985 -177.23523294 697.55179658 -177.23677635 683.12160492 C-177.23686803 682.16213439 -177.2369597 681.20266387 -177.23705416 680.21411848 C-177.23744735 676.31881283 -177.23789699 672.42350719 -177.23842555 668.52820155 C-177.2432887 632.04325301 -177.22068508 595.55836896 -177.18446932 559.07344046 C-177.15245666 526.68454357 -177.1404302 494.2957017 -177.14655113 461.90678978 C-177.14693798 459.8256308 -177.14732444 457.74447182 -177.1477105 455.66331284 C-177.14790185 454.63440642 -177.14809319 453.60549999 -177.14829034 452.54541458 C-177.14924473 447.36562802 -177.15015909 442.18584145 -177.15102959 437.00605488 C-177.15120338 435.98407451 -177.15137717 434.96209415 -177.15155623 433.90914468 C-177.15591351 406.807285 -177.14589314 379.70543124 -177.13119173 352.60357577 C-177.13067159 351.63926454 -177.13015145 350.67495332 -177.12961554 349.68142054 C-177.1290962 348.71890897 -177.12857686 347.75639739 -177.12804177 346.76471879 C-177.12752403 345.8040117 -177.12700629 344.84330461 -177.12647286 343.85348518 C-177.12542478 341.91880703 -177.12436457 339.98412888 -177.12329214 338.04945074 C-177.11592061 324.57955534 -177.11382164 311.10966834 -177.11528615 297.63977117 C-177.11713364 280.28555841 -177.10903274 262.93139745 -177.08364469 245.5772016 C-177.07050681 236.40666267 -177.0654531 227.23620637 -177.07228323 218.06566008 C-177.07600644 211.93328555 -177.06874052 205.80098617 -177.05269084 199.66863171 C-177.04385357 196.17962549 -177.03956712 192.69078871 -177.04861802 189.20177912 C-177.07482341 175.50518813 -176.9773023 162.47889107 -173.64557457 149.13701439 C-173.31412091 147.6020144 -172.98326549 146.06688493 -172.65338707 144.53154564 C-170.82307127 137.10499879 -168.56831131 130.08184968 -165.67291832 122.98857689 C-164.7412241 120.40250548 -164.26307444 118.23395166 -164.02057457 115.51201439 C-163.64557457 112.13701439 -163.64557457 112.13701439 -162.20807457 110.38701439 C-161.69244957 109.97451439 -161.17682457 109.56201439 -160.64557457 109.13701439 C-159.95093308 107.81803925 -159.28789265 106.4822466 -158.64557457 105.13701439 C-155.17398232 98.58404762 -151.29326605 92.31016809 -147.31744957 86.05498314 C-145.57611498 83.33732506 -145.57611498 83.33732506 -145.09869957 80.81279564 C-144.94916832 80.25978783 -144.79963707 79.70678001 -144.64557457 79.13701439 C-143.65557457 78.80701439 -142.66557457 78.47701439 -141.64557457 78.13701439 C-139.93020459 76.02583914 -139.93020459 76.02583914 -138.20807457 73.38701439 C-133.64328242 66.91882182 -128.4327361 61.23040057 -122.96442223 55.51885033 C-121.90196998 54.40565527 -120.85517988 53.27752336 -119.81354332 52.14482689 C-115.48311973 47.56225206 -110.5199462 43.78653835 -105.53082848 39.95488548 C-100.35905926 36.18793247 -100.35905926 36.18793247 -96.64557457 31.13701439 C-95.90694176 30.99779564 -95.16830894 30.85857689 -94.40729332 30.71513939 C-91.14673354 30.03258939 -89.20633764 28.75437187 -86.45807457 26.88701439 C-82.01456765 23.95874934 -77.54203606 21.46438974 -72.73932457 19.17998314 C-70.23469662 17.93234198 -68.10615503 16.6427744 -66.21198082 14.56279564 C-64.28083602 12.80502044 -63.15362967 12.66453491 -60.58307457 12.32451439 C-55.55664928 11.45637998 -50.94312462 9.94110546 -46.14557457 8.26201439 C-31.03269316 3.03639231 -15.99491825 -0.01758476 0 0 Z M-162.64557457 113.13701439 C-161.64557457 115.13701439 -161.64557457 115.13701439 -161.64557457 115.13701439 Z M833.35442543 113.13701439 C834.35442543 115.13701439 834.35442543 115.13701439 834.35442543 115.13701439 Z M-162.64557457 910.13701439 C-161.64557457 912.13701439 -161.64557457 912.13701439 -161.64557457 912.13701439 Z M833.35442543 910.13701439 C834.35442543 912.13701439 834.35442543 912.13701439 834.35442543 912.13701439 Z " fill="#0B0827" transform="translate(176.64557456970215,-0.13701438903808594)"/>
<path d="M0 0 C2.16482118 -0.01678284 4.3295823 -0.04435315 6.49414062 -0.08203125 C9.68818545 -0.13686668 12.8809875 -0.15864953 16.07543945 -0.17333984 C17.03178787 -0.19600922 17.98813629 -0.21867859 18.97346497 -0.24203491 C28.40023937 -0.2124893 34.68447876 3.7342304 41.29418945 10.21337891 C46.47872839 17.11348304 48.80954857 25.50359946 51.4621582 33.60009766 C51.84823242 34.75123047 52.23430664 35.90236328 52.63208008 37.08837891 C54.36231791 42.31741112 55.9866186 47.51377076 57.2434082 52.87744141 C59.51410433 62.30788485 62.78296286 71.4638859 65.8371582 80.66259766 C69.46869765 91.60041507 73.01406218 102.47825857 75.88232422 113.64331055 C77.90132528 120.99980039 80.43775817 128.19482345 82.8996582 135.41259766 C86.09545238 144.8036953 89.18053661 154.17094141 91.8449707 163.72973633 C93.97689405 171.04785931 96.46575968 178.25302963 98.8996582 185.47509766 C99.42598684 187.04401183 99.95202963 188.61302193 100.4777832 190.18212891 C100.9934023 191.7198913 101.50902722 193.25765175 102.0246582 194.79541016 C102.27497803 195.54236145 102.52529785 196.28931274 102.78320312 197.05889893 C103.8645193 200.28199784 104.95206643 203.50216092 106.05981445 206.71630859 C107.65805461 211.38493216 109.09195795 215.99935302 110.20825195 220.80712891 C112.44321449 230.08698348 115.81587527 239.03672801 118.9621582 248.03759766 C120.22962533 251.66453796 121.49037482 255.29371622 122.74731445 258.92431641 C123.03381363 259.73704514 123.32031281 260.54977386 123.61549377 261.38713074 C124.91235074 265.1341832 126.04623043 268.80907962 126.84277344 272.6953125 C128.03850414 278.38801444 130.01456862 283.78035854 131.9621582 289.25244141 C132.76690428 291.54734274 133.57158993 293.84226527 134.3762207 296.13720703 C135.63818662 299.71662358 136.902364 303.29524586 138.16821289 306.87329102 C139.39682511 310.35188899 140.61729441 313.83326774 141.8371582 317.31494141 C142.40285522 318.90132668 142.40285522 318.90132668 142.97998047 320.51976013 C150.04870724 340.72634184 150.44492126 363.0618894 141.2121582 382.78759766 C132.78718165 397.94408814 121.94216714 408.90551783 106.8996582 417.35009766 C106.20098633 417.76130859 105.50231445 418.17251953 104.7824707 418.59619141 C102.85655356 419.65833884 100.93851373 420.52423213 98.8996582 421.35009766 C97.99086914 421.72134766 97.08208008 422.09259766 96.14575195 422.47509766 C78.22030866 428.68752566 58.52335615 426.87070368 41.6105957 418.77587891 C34.47452826 414.90072329 28.65107951 410.02526264 22.8996582 404.35009766 C22.18261719 403.64675293 21.46557617 402.9434082 20.72680664 402.21875 C4.95163165 386.70681174 4.95163165 386.70681174 -1.56542969 379.13012695 C-3.64770221 376.71532674 -5.81182033 374.37959144 -7.9753418 372.03759766 C-12.0659474 367.55212214 -15.94852023 362.94429222 -19.76049805 358.22119141 C-21.83797641 355.67203182 -23.95081552 353.1620433 -26.08691406 350.66235352 C-31.81834195 343.95536343 -37.3076123 337.08582723 -42.72094727 330.12060547 C-44.56318709 327.75601729 -46.41920425 325.40242218 -48.27514648 323.04858398 C-60.0003855 308.16924742 -71.37145395 293.03304114 -82.7097168 277.85791016 C-86.01685651 273.4366631 -89.33914256 269.03030872 -92.71777344 264.66333008 C-101.26259038 253.61694374 -109.45036268 242.32792001 -117.4765625 230.90014648 C-121.15948661 225.66209153 -124.90030009 220.4686749 -128.6628418 215.28759766 C-133.29775915 208.90036294 -137.82700858 202.45157171 -142.26391602 195.92529297 C-145.6182054 191.00300739 -149.11977776 186.220455 -152.73706055 181.48681641 C-154.1003418 179.35009766 -154.1003418 179.35009766 -154.1003418 176.35009766 C-154.7603418 176.35009766 -155.4203418 176.35009766 -156.1003418 176.35009766 C-156.34010742 177.03716797 -156.57987305 177.72423828 -156.8269043 178.43212891 C-158.34421067 181.90890149 -160.34065774 184.9218885 -162.4753418 188.03759766 C-163.38958896 189.39033745 -164.30364368 190.74320733 -165.2175293 192.09619141 C-165.69416016 192.79856934 -166.17079102 193.50094727 -166.66186523 194.22460938 C-168.99385119 197.67034423 -171.29589232 201.13591323 -173.6003418 204.60009766 C-176.8295401 209.44977805 -180.06307262 214.2964692 -183.30787659 219.13572693 C-191.01066379 230.62561698 -198.66248175 242.12971563 -205.99072266 253.86401367 C-209.34377801 259.21165366 -212.85690557 264.41937584 -216.4675293 269.59545898 C-221.29196159 276.55006108 -225.91037387 283.63883355 -230.5378418 290.72509766 C-230.95121796 291.35809784 -231.36459412 291.99109802 -231.79049683 292.64328003 C-232.2020401 293.27348053 -232.61358337 293.90368103 -233.03759766 294.55297852 C-233.85663629 295.80700087 -234.67572748 297.0609889 -235.49487305 298.31494141 C-235.89405441 298.92603256 -236.29323578 299.53712372 -236.70451355 300.16673279 C-240.01373049 305.22788559 -243.35966863 310.26380692 -246.7253418 315.28759766 C-249.98376147 320.15300692 -253.20060476 325.03815028 -256.3503418 329.97509766 C-261.20593206 337.57863187 -266.22827635 345.06941607 -271.25366211 352.56152344 C-274.4772458 357.37622477 -277.66009688 362.20783874 -280.75268555 367.10791016 C-283.54664253 371.52336003 -286.46651053 375.81155941 -289.5378418 380.03759766 C-290.20589844 380.96475586 -290.20589844 380.96475586 -290.88745117 381.91064453 C-291.95570668 383.39241831 -293.02759919 384.87156911 -294.1003418 386.35009766 C-297.79910271 384.97722424 -301.0517894 383.28654313 -304.4128418 381.22509766 C-305.73735352 380.41685547 -305.73735352 380.41685547 -307.08862305 379.59228516 C-308.08442383 378.97740234 -308.08442383 378.97740234 -309.1003418 378.35009766 C-307.55104919 374.29751454 -305.72809856 370.41413524 -303.7878418 366.53759766 C-303.44881836 365.85890625 -303.10979492 365.18021484 -302.76049805 364.48095703 C-298.96754371 356.96798978 -294.91898983 349.59473809 -290.88476562 342.20947266 C-287.79592103 336.53815143 -284.80110565 330.84412507 -281.9753418 325.03759766 C-278.69371229 318.30676607 -274.97206446 311.87975115 -271.17504883 305.4284668 C-267.47134359 299.09555626 -264.14956687 292.63342141 -260.9284668 286.04541016 C-259.23951707 282.59788169 -257.43882391 279.2206482 -255.6003418 275.85009766 C-253.0956728 271.25163794 -250.72400808 266.60946505 -248.4128418 261.91259766 C-244.70209988 254.39636757 -240.70534418 247.04998086 -236.66845703 239.70483398 C-233.37260475 233.7024334 -230.14343993 227.67081786 -226.9753418 221.60009766 C-223.73769087 215.3978351 -220.40235182 209.26219089 -216.9753418 203.16259766 C-213.48202443 196.94250889 -210.2082082 190.65275446 -207.06860352 184.24780273 C-204.39627132 178.83804136 -201.46331447 173.60468364 -198.46655273 168.36938477 C-195.38888683 162.95549065 -192.56707362 157.43758558 -189.83862305 151.84033203 C-189.53698242 151.22351563 -189.2353418 150.60669922 -188.92456055 149.97119141 C-188.63242676 149.37032715 -188.34029297 148.76946289 -188.03930664 148.15039062 C-187.0551894 146.2635262 -185.94094762 144.49796556 -184.80737305 142.69775391 C-182.93871736 139.61917751 -182.93871736 139.61917751 -183.0222168 136.94775391 C-184.68683705 132.93698409 -186.98150744 129.4168854 -189.3503418 125.78759766 C-189.88103271 124.9605835 -190.41172363 124.13356934 -190.95849609 123.28149414 C-193.79820085 118.86597545 -196.67187624 114.47260734 -199.54174805 110.07666016 C-200.66549628 108.35533884 -201.78919474 106.63398502 -202.9128418 104.91259766 C-203.46673584 104.06503906 -204.02062988 103.21748047 -204.59130859 102.34423828 C-207.9699338 97.153724 -211.17609174 91.90324478 -214.23706055 86.51806641 C-216.71168765 82.31068154 -219.34729884 78.21283011 -221.9753418 74.10009766 C-226.20625043 67.46777366 -230.20457108 60.75853553 -234.00463867 53.87133789 C-236.68954776 49.02131911 -239.56401282 44.32731723 -242.5925293 39.68212891 C-243.09010742 38.91255859 -243.58768555 38.14298828 -244.1003418 37.35009766 C-244.68041992 36.52896484 -245.26049805 35.70783203 -245.8581543 34.86181641 C-247.1003418 32.35009766 -247.1003418 32.35009766 -247.13549805 29.86962891 C-245.71402655 26.40982093 -243.33327404 24.39329899 -240.5378418 22.03759766 C-240.01770508 21.58320313 -239.49756836 21.12880859 -238.96166992 20.66064453 C-237.68357114 19.54670522 -236.39313525 18.44694877 -235.1003418 17.35009766 C-230.70489002 18.81254002 -227.45703866 21.20869813 -223.9128418 24.10009766 C-222.6673099 25.09819503 -221.42118681 26.09555498 -220.17456055 27.09228516 C-219.51504395 27.62176758 -218.85552734 28.15125 -218.17602539 28.69677734 C-215.30616872 30.98267118 -212.40306703 33.22437729 -209.49975586 35.4675293 C-200.84344493 42.15675025 -192.3097091 48.98309853 -183.84887695 55.91748047 C-182.26164984 57.21793407 -180.67139915 58.51469516 -179.08081055 59.81103516 C-175.31348708 62.8831015 -171.55496303 65.96408991 -167.83081055 69.08837891 C-167.28199219 69.54833252 -166.73317383 70.00828613 -166.16772461 70.48217773 C-164.62146152 71.77991771 -163.07762799 73.0805509 -161.53393555 74.38134766 C-159.27723144 76.35117858 -159.27723144 76.35117858 -157.1003418 77.35009766 C-157.1003418 78.01009766 -157.1003418 78.67009766 -157.1003418 79.35009766 C-155.4503418 80.01009766 -153.8003418 80.67009766 -152.1003418 81.35009766 C-151.85541992 80.67591797 -151.61049805 80.00173828 -151.3581543 79.30712891 C-149.83223547 75.719798 -147.92408964 72.40533664 -145.9753418 69.03759766 C-142.88883659 63.63342342 -139.96051414 58.19010171 -137.2253418 52.60009766 C-133.72169519 45.44886796 -129.92973497 38.47731041 -126.04418945 31.52685547 C-123.30604147 26.61326147 -120.73707271 21.65714149 -118.31860352 16.57763672 C-114.96362781 10.4432082 -109.90143307 6.38025335 -103.31347656 4.12988281 C-99.513428 3.20766147 -95.80603644 2.94888004 -91.91674805 2.77978516 C-90.73861542 2.72171692 -90.73861542 2.72171692 -89.53668213 2.66247559 C-80.81204413 2.25224584 -72.08198909 2.04297261 -63.3503418 1.85009766 C-53.38543716 1.62796332 -43.43482973 1.33458342 -33.47924805 0.84228516 C-22.32135994 0.30608258 -11.17029473 0.06329748 0 0 Z " fill="#E95DCD" transform="translate(710.100341796875,296.64990234375)"/>
<path d="M0 0 C1.58072943 0.1042895 3.16148475 0.20818709 4.74226379 0.3117218 C8.91002426 0.58616796 13.07732049 0.86708564 17.24449921 1.15021515 C19.81904006 1.32492765 22.39366644 1.49832344 24.96832275 1.67132568 C34.18713586 2.29116502 43.40536813 2.91901176 52.62303925 3.55560684 C57.21927781 3.87289153 61.81577901 4.18583133 66.41259766 4.49462891 C71.04142279 4.80637321 75.6691981 5.12966178 80.29611206 5.46859741 C81.82830756 5.57939173 83.3608034 5.68611882 84.89358521 5.78848267 C86.9364295 5.92616927 88.97805347 6.08163227 91.01953125 6.23828125 C92.09638184 6.31643066 93.17323242 6.39458008 94.28271484 6.47509766 C105.09175258 8.43244359 111.43722752 18.1123579 117.89453125 26.15625 C120.26098763 29.02980417 122.72367678 31.77454492 125.24609375 34.51171875 C129.35667158 38.97808076 133.21043968 43.5955518 137.0234375 48.31640625 C139.95631882 51.87297586 143.03631711 55.28096444 146.13671875 58.69140625 C151.59459507 64.69507021 156.82928675 70.88217093 162.05371094 77.08862305 C164.93246182 80.49593309 167.86695742 83.83847117 170.87109375 87.13671875 C173.9227207 90.4918823 176.83397162 93.92087752 179.68359375 97.44921875 C182.77758089 101.27627602 185.97439925 104.95452748 189.30859375 108.57421875 C193.87373973 113.53229592 198.11343542 118.69005537 202.24609375 124.01171875 C200.77983519 127.35992773 198.90950928 129.70438234 196.37109375 132.32421875 C195.69304687 133.04222656 195.015 133.76023437 194.31640625 134.5 C192.24609375 136.01171875 192.24609375 136.01171875 190.31054688 135.7565918 C186.84799915 134.50727378 184.33504688 131.92301964 181.62109375 129.51171875 C180.99936279 128.96926514 180.37763184 128.42681152 179.73706055 127.86791992 C175.33397445 124.0144389 170.99868747 120.08678755 166.66796875 116.15234375 C164.10305818 113.88529376 161.47125865 111.7254113 158.80859375 109.57421875 C153.97303458 105.66069417 149.36622327 101.54668276 144.78515625 97.33984375 C136.22958788 89.49504567 127.30524432 82.0506703 118.48583984 74.50585938 C111.09855787 68.18523496 103.72884248 61.84550437 96.39477539 55.46313477 C95.80946045 54.95451904 95.22414551 54.44590332 94.62109375 53.921875 C94.11320313 53.47980713 93.6053125 53.03773926 93.08203125 52.58227539 C92.47617187 52.0639917 91.8703125 51.54570801 91.24609375 51.01171875 C89.99965088 49.68237305 89.99965088 49.68237305 88.72802734 48.32617188 C84.3538494 44.72337438 79.51992617 45.64585631 74.16015625 46.0703125 C73.06764557 46.1359288 71.97513489 46.2015451 70.84951782 46.26914978 C67.31263558 46.48928787 63.7800113 46.74851895 60.24609375 47.01171875 C57.88517968 47.17204481 55.52417639 47.33106233 53.16308594 47.48876953 C45.97952715 47.9804328 38.80033036 48.52349471 31.62109375 49.07421875 C27.93809657 49.35471991 24.25501447 49.63390358 20.57168579 49.91001892 C18.3087666 50.07982345 16.0460357 50.25216382 13.78353882 50.42750549 C8.58707912 50.81908073 3.45734742 51.1108183 -1.75390625 51.01171875 C-1.7796875 51.98625 -1.80546875 52.96078125 -1.83203125 53.96484375 C-2.18075893 63.52252255 -3.20925598 72.86690072 -4.62890625 82.32421875 C-6.02238821 91.62406085 -7.22222249 100.90185928 -8.12890625 110.26171875 C-9.38045753 122.99752562 -10.9047443 135.69021794 -12.50390625 148.38671875 C-12.62985168 149.3866687 -12.75579712 150.38661865 -12.88555908 151.41687012 C-13.69124274 157.80252717 -14.50262894 164.18745115 -15.31591797 170.57214355 C-15.77117032 174.14729562 -16.22553928 177.72255907 -16.6796875 181.29785156 C-18.0577397 192.14572564 -19.4370336 202.99343779 -20.82182312 213.8404541 C-21.2266709 217.01444405 -21.63013825 220.18860718 -22.03344727 223.36279297 C-22.47015382 226.79759662 -22.91231769 230.23155944 -23.36303711 233.66455078 C-24.45658762 242.05950997 -25.2516373 250.43973968 -25.81640625 258.88671875 C-26.34857348 266.60974074 -26.92535766 274.31416484 -27.75390625 282.01171875 C-26.41199219 280.8515625 -26.41199219 280.8515625 -25.04296875 279.66796875 C-18.93980838 274.405074 -12.82031313 269.18857632 -6.49609375 264.19140625 C-3.66883551 261.94409842 -0.86784787 259.6669401 1.93066406 257.3840332 C9.40557811 251.28658854 16.94317709 245.2783625 24.54589844 239.34130859 C26.79778331 237.58028547 29.04347221 235.81145292 31.28930664 234.04272461 C34.27177225 231.69506215 37.25861351 229.35299484 40.24609375 227.01171875 C40.96909668 226.44485352 41.69209961 225.87798828 42.43701172 225.29394531 C51.26672564 218.37755427 60.12032132 211.53522014 69.24609375 205.01171875 C70.76751191 203.91226716 72.28828627 202.8119244 73.80859375 201.7109375 C80.83890248 196.62149017 80.83890248 196.62149017 83.40234375 194.76953125 C84.07072266 194.28629395 84.73910156 193.80305664 85.42773438 193.30517578 C87.01303471 192.17750108 88.62737046 191.09086761 90.24609375 190.01171875 C88.75215313 186.8715426 87.0086163 183.99329433 85.12109375 181.07421875 C81.89886126 176.04938489 78.75333719 170.98300962 75.6328125 165.89453125 C72.01719893 160.00347884 68.36894463 154.13252046 64.72607422 148.25830078 C64.18998535 147.39317871 63.65389648 146.52805664 63.1015625 145.63671875 C62.62356201 144.86585938 62.14556152 144.095 61.65307617 143.30078125 C61.18877197 142.54539062 60.72446777 141.79 60.24609375 141.01171875 C59.69195801 140.13217529 59.13782227 139.25263184 58.56689453 138.34643555 C57.24609375 136.01171875 57.24609375 136.01171875 57.2578125 134.03125 C58.71000188 131.06373258 60.74200654 129.04294022 63.05859375 126.69921875 C63.93128906 125.79558594 64.80398438 124.89195312 65.703125 123.9609375 C68.24609375 122.01171875 68.24609375 122.01171875 70.29296875 122.078125 C70.9375 122.38621094 71.58203125 122.69429688 72.24609375 123.01171875 C72.92542969 123.32625 73.60476563 123.64078125 74.3046875 123.96484375 C91.04300885 133.08983995 106.94328334 143.67786344 122.73681641 154.32714844 C125.93044065 156.47114604 129.14292024 158.58581384 132.35571289 160.70092773 C135.29500474 162.64493399 138.21624923 164.61484591 141.13378906 166.59130859 C142.54318616 167.53905158 143.95928292 168.47690592 145.38183594 169.40478516 C155.00135043 175.69069414 162.11715949 181.33631835 164.7265625 193.1953125 C165.49930925 203.57518102 157.92109363 213.07105098 152.24609375 221.01171875 C151.77494141 221.67204102 151.30378906 222.33236328 150.81835938 223.01269531 C147.54734185 227.58416218 144.24614031 232.13323376 140.93847656 236.67822266 C139.31079859 238.92250223 137.69425309 241.1742867 136.08203125 243.4296875 C127.70290376 255.13727749 119.0192538 266.59728008 110.24609375 278.01171875 C109.28382509 279.26560269 108.32158221 280.51950641 107.359375 281.7734375 C105.75215331 283.86626361 104.14234624 285.95702228 102.53125 288.046875 C100.95311029 290.09441011 99.3772826 292.1435333 97.8046875 294.1953125 C89.57871588 304.92343788 81.29044931 315.59836084 72.69140625 326.03125 C70.82043589 328.31168193 68.96253451 330.60049291 67.11328125 332.8984375 C61.67462039 339.64864439 56.19935144 346.2934166 50.33203125 352.6796875 C48.16756744 355.0995094 46.14448562 357.59807653 44.12109375 360.13671875 C35.44830569 370.80860701 25.83974605 380.67566904 15.87109375 390.13671875 C15.24195068 390.73967773 14.61280762 391.34263672 13.96459961 391.96386719 C7.23799299 398.24449636 -0.27245858 403.06263097 -8.50390625 407.13671875 C-9.19000977 407.47654785 -9.87611328 407.81637695 -10.58300781 408.16650391 C-31.34342981 418.18131609 -55.45215885 420.38894807 -77.4140625 413.1328125 C-79.91414467 412.18587171 -82.32608338 411.13049606 -84.75390625 410.01171875 C-86.20410156 409.38136719 -86.20410156 409.38136719 -87.68359375 408.73828125 C-95.25473165 405.25131952 -100.85282012 400.85112105 -106.75390625 395.01171875 C-107.39070313 394.42390625 -108.0275 393.83609375 -108.68359375 393.23046875 C-122.43268652 380.27576801 -129.49119681 363.25926189 -130.19140625 344.51171875 C-129.6638803 325.64739074 -124.1577171 307.47493716 -118.79736328 289.52929688 C-117.10657491 283.82951241 -115.48896161 278.10973761 -113.87890625 272.38671875 C-113.59297607 271.38656738 -113.3070459 270.38641602 -113.01245117 269.35595703 C-112.74408447 268.40446777 -112.47571777 267.45297852 -112.19921875 266.47265625 C-111.85141357 265.24748291 -111.85141357 265.24748291 -111.49658203 263.99755859 C-110.85816264 261.43086921 -110.32289167 258.87914199 -109.81738281 256.28417969 C-108.81857637 251.20276151 -107.59391902 246.20284167 -106.29296875 241.19140625 C-106.06112885 240.28907257 -105.82928894 239.38673889 -105.59042358 238.45706177 C-104.85575392 235.59962937 -104.11748617 232.74314266 -103.37890625 229.88671875 C-102.41184102 226.13435112 -101.44610219 222.38164256 -100.48046875 218.62890625 C-100.24302948 217.70675323 -100.00559021 216.78460022 -99.76095581 215.83450317 C-97.72074965 207.90284847 -95.72687598 199.96037529 -93.75390625 192.01171875 C-91.91395112 184.60606773 -90.072022 177.20091138 -88.22753906 169.79638672 C-87.66451035 167.53422937 -87.10232748 165.27186131 -86.54101562 163.00927734 C-83.66092403 151.40291289 -80.73419805 139.82161871 -77.52734375 128.30078125 C-75.54513318 121.1675944 -73.89023331 114.09204134 -72.5234375 106.81445312 C-70.91973573 98.88956141 -68.78909517 91.08466265 -66.75390625 83.26171875 C-66.31084323 81.5443623 -65.86813336 79.8269147 -65.42578125 78.109375 C-63.66927607 71.30376301 -61.90341353 64.50322509 -60.0234375 57.73046875 C-58.97694405 53.93023814 -58.13740802 50.14417763 -57.44140625 46.26171875 C-56.11048239 39.51005294 -54.59137651 32.81768466 -52.94140625 26.13671875 C-52.71735107 25.17411133 -52.4932959 24.21150391 -52.26245117 23.21972656 C-50.15788923 14.91062019 -46.69040995 7.08878205 -39.06640625 2.51171875 C-38.32003906 2.04765625 -37.57367188 1.58359375 -36.8046875 1.10546875 C-26.99417175 -4.12680632 -10.87868045 -0.74257245 0 0 Z " fill="#C934D0" transform="translate(277.75390625,302.98828125)"/>
<path d="M0 0 C3.11899232 0.18449675 6.23448023 0.29641696 9.35739136 0.39312744 C16.28260499 0.61012062 23.20445829 0.88912594 30.12716675 1.17388916 C32.54577278 1.27058797 34.96439254 1.36694433 37.38302612 1.46295166 C43.23540327 1.69599314 49.08759844 1.93322293 54.93966675 2.17388916 C57.64437476 13.87009942 60.34857305 25.56628806 63.0138855 37.27154541 C63.27692978 38.42590843 63.27692978 38.42590843 63.54528809 39.60359192 C64.41001735 43.39857727 65.27353637 47.19383031 66.13497925 50.98956299 C67.56392217 57.26983068 69.0141007 63.54014858 70.599823 69.78326416 C71.63064543 73.85482308 72.49397171 77.90453445 73.18966675 82.04888916 C74.55983863 89.73872717 76.33215752 97.32356464 78.12716675 104.92388916 C83.33575326 127.00230653 88.38240642 149.12530738 92.87716675 171.36138916 C93.07648804 172.3395459 93.27580933 173.31770264 93.48117065 174.32550049 C94.59251747 179.93221052 95.38755683 185.48425114 95.93966675 191.17388916 C88.1708127 184.84830553 81.29995041 177.5967891 74.26705933 170.48077393 C65.73709262 161.85887213 65.73709262 161.85887213 56.73043823 153.74200439 C53.46974719 150.88673261 50.4725395 147.76695211 47.43966675 144.67388916 C43.03308801 140.219619 38.61783419 135.88496755 33.8263855 131.84185791 C30.52276949 128.92126984 27.48661381 125.72753695 24.3888855 122.59185791 C21.62920635 119.86738998 18.74786017 117.3384154 15.802948 114.81842041 C13.93514882 113.16990164 12.18511051 111.45085335 10.43966675 109.67388916 C8.18168732 107.3806288 5.87970171 105.20960888 3.43966675 103.11138916 C-0.66543565 99.57554901 -4.61033235 95.88058239 -8.56033325 92.17388916 C-12.96835509 88.04009415 -17.39261944 83.95135475 -21.97439575 80.00982666 C-24.8839769 77.44895936 -27.71844922 74.80941983 -30.56033325 72.17388916 C-36.06219725 67.07917855 -36.06219725 67.07917855 -41.62283325 62.04888916 C-42.20162231 61.53068604 -42.78041138 61.01248291 -43.3767395 60.47857666 C-45.1781048 59.08262305 -46.99366921 58.12355973 -49.06033325 57.17388916 C-49.06033325 56.51388916 -49.06033325 55.85388916 -49.06033325 55.17388916 C-49.72033325 55.17388916 -50.38033325 55.17388916 -51.06033325 55.17388916 C-49.58051417 50.98439151 -47.43090648 47.47626206 -44.947052 43.82623291 C-44.33866486 42.91801033 -44.33866486 42.91801033 -43.71798706 41.99143982 C-41.49136326 38.67160507 -39.24128299 35.36796558 -36.98831177 32.065979 C-32.91318113 26.07206731 -28.93646676 20.14839944 -25.51345825 13.74810791 C-24.99307983 12.81555176 -24.47270142 11.88299561 -23.93655396 10.92218018 C-22.48177216 8.34497031 -22.48177216 8.34497031 -21.33840942 5.76348877 C-16.75972395 -2.34142105 -8.10091758 -0.50906553 0 0 Z " fill="#070822" transform="translate(646.0603332519531,357.82611083984375)"/>
<path d="M0 0 C0.33 0.99 0.66 1.98 1 3 C0.32904297 3.65355469 0.32904297 3.65355469 -0.35546875 4.3203125 C-3.20375747 7.12608944 -5.91292196 9.89282703 -8.4375 13 C-11.12028021 16.14081586 -13.99361801 18.71372254 -17.12890625 21.38671875 C-19.18926163 23.16318382 -21.11623602 25.03774585 -23 27 C-23.99 26.67 -24.98 26.34 -26 26 C-22.11749866 22.02456645 -18.21676477 18.1227364 -14 14.5 C-8.90590361 10.1106205 -3.74385439 5.61578159 0 0 Z " fill="#160837" transform="translate(312,673)"/>
<path d="M0 0 C14.35331148 -0.17991616 28.66161788 0.37824568 43 1 C43 1.33 43 1.66 43 2 C32.99112106 2.62277469 23.03411669 3.17707265 13 3 C13 2.34 13 1.68 13 1 C8.71 1 4.42 1 0 1 C0 0.67 0 0.34 0 0 Z " fill="#05040E" transform="translate(632,358)"/>
<path d="M0 0 C0.66 0.66 1.32 1.32 2 2 C-6.74507107 2.10621544 -15.30019136 2.01286753 -24 1 C-24 0.67 -24 0.34 -24 0 C-15.97937977 -1.04477017 -8.01078212 -1.35675986 0 0 Z " fill="#0C0618" transform="translate(305,303)"/>
<path d="M0 0 C-0.33 0.99 -0.66 1.98 -1 3 C-6.78645644 4.25406138 -12.48868116 4.11186913 -18.375 4.0625 C-19.39722656 4.05798828 -20.41945312 4.05347656 -21.47265625 4.04882812 C-23.98183194 4.037103 -26.4908849 4.02069176 -29 4 C-29 3.67 -29 3.34 -29 3 C-22.73 2.67 -16.46 2.34 -10 2 C-10 1.67 -10 1.34 -10 1 C-3.375 0 -3.375 0 0 0 Z " fill="#2A0A41" transform="translate(246,718)"/>
<path d="M0 0 C3.60659743 2.72231785 6.48899358 5.53710498 9.3125 9.0625 C10.00988281 9.91972656 10.70726562 10.77695312 11.42578125 11.66015625 C13 14 13 14 13 17 C9.02361267 14.1281647 6.48469141 11.23317796 4 7 C4 6.34 4 5.68 4 5 C3.34 5 2.68 5 2 5 C1.34 3.35 0.68 1.7 0 0 Z " fill="#1F0D2B" transform="translate(676,638)"/>
<path d="M0 0 C0.99 0 1.98 0 3 0 C3.55706146 2.43489767 4.0960037 4.87149591 4.625 7.3125 C4.78484375 8.00279297 4.9446875 8.69308594 5.109375 9.40429688 C5.50206712 11.25173481 5.75842888 13.12680022 6 15 C5.01 16.485 5.01 16.485 4 18 C2.68 12.06 1.36 6.12 0 0 Z " fill="#1C0D28" transform="translate(722,466)"/>
<path d="M0 0 C3.80635497 3.20760251 7.54563567 6.40746109 11 10 C10.01 10.33 9.02 10.66 8 11 C5.03 8.03 2.06 5.06 -1 2 C-0.67 1.34 -0.34 0.68 0 0 Z " fill="#1B0E2F" transform="translate(699,505)"/>
<path d="M0 0 C3.62613199 0.56959153 5.25517741 1.92374534 7.75 4.5625 C8.36359375 5.20316406 8.9771875 5.84382813 9.609375 6.50390625 C10.06828125 6.99761719 10.5271875 7.49132812 11 8 C10.34 8.66 9.68 9.32 9 10 C7.49702124 8.52386015 5.99768715 7.04400843 4.5 5.5625 C3.6646875 4.73878906 2.829375 3.91507812 1.96875 3.06640625 C0 1 0 1 0 0 Z " fill="#1B0E2F" transform="translate(675,484)"/>
<path d="M0 0 C0.66 0 1.32 0 2 0 C0.44298069 4.67105792 -2.08447373 8.08705685 -5 12 C-5.66 11.34 -6.32 10.68 -7 10 C-5.88321917 8.3278148 -4.75633648 6.66237197 -3.625 5 C-2.99851562 4.071875 -2.37203125 3.14375 -1.7265625 2.1875 C-1.15679687 1.465625 -0.58703125 0.74375 0 0 Z " fill="#1A0A2C" transform="translate(466,607)"/>
<path d="M0 0 C0 3.54016293 -0.73358567 4.41055605 -2.8125 7.1875 C-3.33457031 7.90292969 -3.85664062 8.61835937 -4.39453125 9.35546875 C-4.92433594 9.89816406 -5.45414063 10.44085937 -6 11 C-6.99 11 -7.98 11 -9 11 C-7.88037801 9.35050343 -6.75413155 7.70550162 -5.625 6.0625 C-4.99851562 5.14597656 -4.37203125 4.22945312 -3.7265625 3.28515625 C-2 1 -2 1 0 0 Z " fill="#1C0D28" transform="translate(850,682)"/>
<path d="M0 0 C0.66 0 1.32 0 2 0 C0.5140084 4.59306496 -1.85014682 7.43569245 -5 11 C-5.66 10.67 -6.32 10.34 -7 10 C-5.88321917 8.3278148 -4.75633648 6.66237197 -3.625 5 C-2.99851562 4.071875 -2.37203125 3.14375 -1.7265625 2.1875 C-1.15679687 1.465625 -0.58703125 0.74375 0 0 Z " fill="#180A2A" transform="translate(501,554)"/>
<path d="M0 0 C0.66 0.66 1.32 1.32 2 2 C-2.455 4.97 -2.455 4.97 -7 8 C-7.66 7.34 -8.32 6.68 -9 6 C-8.43410156 5.65066406 -7.86820312 5.30132813 -7.28515625 4.94140625 C-6.55167969 4.48636719 -5.81820313 4.03132812 -5.0625 3.5625 C-4.33160156 3.11003906 -3.60070312 2.65757812 -2.84765625 2.19140625 C-1.06100191 1.13135967 -1.06100191 1.13135967 0 0 Z " fill="#230A3B" transform="translate(284,700)"/>
<path d="M0 0 C3.53233755 1.17744585 3.86308075 1.95605641 5.6875 5.0625 C6.12449219 5.79597656 6.56148437 6.52945312 7.01171875 7.28515625 C7.33785156 7.85105469 7.66398438 8.41695313 8 9 C7.01 9 6.02 9 5 9 C3.61328125 7.5390625 3.61328125 7.5390625 2.3125 5.625 C1.65701172 4.68527344 1.65701172 4.68527344 0.98828125 3.7265625 C0 2 0 2 0 0 Z " fill="#1D0C2A" transform="translate(558,480)"/>
<path d="M0 0 C0.66 0 1.32 0 2 0 C1.1875 2.9375 1.1875 2.9375 0 6 C-0.99 6.33 -1.98 6.66 -3 7 C-3 7.66 -3 8.32 -3 9 C-3.66 8.67 -4.32 8.34 -5 8 C-4.21718695 6.66144944 -3.42348123 5.32926356 -2.625 4 C-2.18414063 3.2575 -1.74328125 2.515 -1.2890625 1.75 C-0.86367188 1.1725 -0.43828125 0.595 0 0 Z " fill="#220F34" transform="translate(554,473)"/>
<path d="M0 0 C0.99 0.33 1.98 0.66 3 1 C1.02 3.97 -0.96 6.94 -3 10 C-4 6 -4 6 -2.0625 2.75 C-1.381875 1.8425 -0.70125 0.935 0 0 Z " fill="#170A22" transform="translate(613,384)"/>
<path d="M0 0 C-2.76223278 2.76223278 -5.20706617 2.57856291 -9 3 C-9.33 2.34 -9.66 1.68 -10 1 C-3.375 -1.125 -3.375 -1.125 0 0 Z " fill="#280B43" transform="translate(258,716)"/>
<path d="M0 0 C4.39158329 1.4638611 4.87947433 3.97831338 7 8 C6.34 8.66 5.68 9.32 5 10 C1.125 3.375 1.125 3.375 0 0 Z " fill="#1A0A26" transform="translate(521,425)"/>
<path d="M0 0 C2.4044979 1.88178097 2.99790027 2.99224715 3.8125 6 C4 9 4 9 2 12 C0.70756464 7.8803623 -0.26252625 4.33168317 0 0 Z " fill="#1E0E2B" transform="translate(704,383)"/>
<path d="M0 0 C0.33 0 0.66 0 1 0 C1.125 6.625 1.125 6.625 0 10 C-0.66 10 -1.32 10 -2 10 C-1.125 2.25 -1.125 2.25 0 0 Z " fill="#A321B7" transform="translate(158,597)"/>
<path d="M0 0 C0.33 0 0.66 0 1 0 C0.67 4.62 0.34 9.24 0 14 C-0.33 14 -0.66 14 -1 14 C-1.93402724 8.58264203 -2.20808081 5.19548425 0 0 Z " fill="#180931" transform="translate(268,433)"/>
<path d="M0 0 C0.66 0 1.32 0 2 0 C2.33 2.64 2.66 5.28 3 8 C1.5 6.8125 1.5 6.8125 0 5 C-0.1875 2.3125 -0.1875 2.3125 0 0 Z " fill="#100719" transform="translate(700,366)"/>
<path d="M0 0 C2.475 0.495 2.475 0.495 5 1 C4.01 1.33 3.02 1.66 2 2 C1.34 1.34 0.68 0.68 0 0 Z " fill="#1B001B" transform="translate(128,1017)"/>
<path d="M0 0 C0.66 0.66 1.32 1.32 2 2 C1.67 2.99 1.34 3.98 1 5 C0.67 3.35 0.34 1.7 0 0 Z " fill="#00000C" transform="translate(1017,128)"/>
<path d="M0 0 C0.33 0.99 0.66 1.98 1 3 C0.34 3.66 -0.32 4.32 -1 5 C-0.67 3.35 -0.34 1.7 0 0 Z " fill="#000019" transform="translate(7,128)"/>
<path d="M0 0 C0.99 0.33 1.98 0.66 3 1 C1.35 1.33 -0.3 1.66 -2 2 C-1.34 1.34 -0.68 0.68 0 0 Z " fill="#000019" transform="translate(130,6)"/>
<path d="M0 0 C1.65 0 3.3 0 5 0 C5 0.33 5 0.66 5 1 C3.35 1 1.7 1 0 1 C0 0.67 0 0.34 0 0 Z " fill="#000000" transform="translate(876,1022)"/>
<path d="M0 0 C0.33 0 0.66 0 1 0 C1 1.65 1 3.3 1 5 C0.67 5 0.34 5 0 5 C0 3.35 0 1.7 0 0 Z " fill="#000000" transform="translate(1022,876)"/>
<path d="M0 0 C0.33 0 0.66 0 1 0 C1 1.65 1 3.3 1 5 C0.67 5 0.34 5 0 5 C0 3.35 0 1.7 0 0 Z " fill="#00002A" transform="translate(2,876)"/>
<path d="M0 0 C0.33 0 0.66 0 1 0 C1 1.65 1 3.3 1 5 C0.67 5 0.34 5 0 5 C0 3.35 0 1.7 0 0 Z " fill="#000000" transform="translate(0,867)"/>
<path d="M0 0 C0.33 0 0.66 0 1 0 C1 1.65 1 3.3 1 5 C0.67 5 0.34 5 0 5 C0 3.35 0 1.7 0 0 Z " fill="#000000" transform="translate(0,153)"/>
<path d="M0 0 C0.33 0 0.66 0 1 0 C1 1.65 1 3.3 1 5 C0.67 5 0.34 5 0 5 C0 3.35 0 1.7 0 0 Z " fill="#000000" transform="translate(2,144)"/>
<path d="M0 0 C1.65 0 3.3 0 5 0 C5 0.33 5 0.66 5 1 C3.35 1 1.7 1 0 1 C0 0.67 0 0.34 0 0 Z " fill="#000000" transform="translate(876,2)"/>
<path d="M0 0 C1.65 0 3.3 0 5 0 C5 0.33 5 0.66 5 1 C3.35 1 1.7 1 0 1 C0 0.67 0 0.34 0 0 Z " fill="#000000" transform="translate(144,2)"/>
<path d="M0 0 C1.65 0 3.3 0 5 0 C5 0.33 5 0.66 5 1 C3.35 1 1.7 1 0 1 C0 0.67 0 0.34 0 0 Z " fill="#000000" transform="translate(867,0)"/>
<path d="M0 0 C1.65 0 3.3 0 5 0 C5 0.33 5 0.66 5 1 C3.35 1 1.7 1 0 1 C0 0.67 0 0.34 0 0 Z " fill="#000000" transform="translate(153,0)"/>
<path d="M0 0 C4 1 4 1 4 1 Z " fill="#000000" transform="translate(144,1022)"/>
<path d="M0 0 C4 1 4 1 4 1 Z " fill="#000000" transform="translate(881,1021)"/>
<path d="M0 0 C4 1 4 1 4 1 Z " fill="#000035" transform="translate(140,1021)"/>
<path d="M0 0 C4 1 4 1 4 1 Z " fill="#00001A" transform="translate(888,1019)"/>
<path d="M0 0 C4 1 4 1 4 1 Z " fill="#1A0030" transform="translate(133,1019)"/>
<path d="M0 0 C1 4 1 4 1 4 Z " fill="#00001A" transform="translate(1019,888)"/>
<path d="M0 0 C1 4 1 4 1 4 Z " fill="#14002C" transform="translate(5,888)"/>
<path d="M0 0 C1 4 1 4 1 4 Z " fill="#000000" transform="translate(1021,881)"/>
<path d="M0 0 C1 4 1 4 1 4 Z " fill="#0C0037" transform="translate(3,881)"/>
<path d="M0 0 C1 4 1 4 1 4 Z " fill="#000000" transform="translate(1022,144)"/>
<path d="M0 0 C1 4 1 4 1 4 Z " fill="#000000" transform="translate(1021,140)"/>
<path d="M0 0 C1 4 1 4 1 4 Z " fill="#000010" transform="translate(3,140)"/>
<path d="M0 0 C1 4 1 4 1 4 Z " fill="#000024" transform="translate(5,133)"/>
<path d="M0 0 C1 4 1 4 1 4 Z " fill="#00000A" transform="translate(1019,133)"/>
<path d="M0 0 C4 1 4 1 4 1 Z " fill="#000008" transform="translate(888,5)"/>
<path d="M0 0 C4 1 4 1 4 1 Z " fill="#000014" transform="translate(133,5)"/>
<path d="M0 0 C4 1 4 1 4 1 Z " fill="#000000" transform="translate(881,3)"/>
<path d="M0 0 C4 1 4 1 4 1 Z " fill="#000000" transform="translate(140,3)"/>
<path d="M0 0 C3 1 3 1 3 1 Z " fill="#000000" transform="translate(873,1023)"/>
<path d="M0 0 C3 1 3 1 3 1 Z " fill="#000000" transform="translate(149,1023)"/>
<path d="M0 0 C3 1 3 1 3 1 Z " fill="#000011" transform="translate(885,1020)"/>
<path d="M0 0 C3 1 3 1 3 1 Z " fill="#11002D" transform="translate(137,1020)"/>
<path d="M0 0 C3 1 3 1 3 1 Z " fill="#00001D" transform="translate(894,1017)"/>
<path d="M0 0 C3 1 3 1 3 1 Z " fill="#000029" transform="translate(897,1016)"/>
<path d="M0 0 C3 1 3 1 3 1 Z " fill="#280028" transform="translate(125,1016)"/>
<path d="M0 0 C3 1 3 1 3 1 Z " fill="#000025" transform="translate(900,1015)"/>
<path d="M0 0 C3 1 3 1 3 1 Z " fill="#260030" transform="translate(122,1015)"/>
<path d="M0 0 C3 1 3 1 3 1 Z " fill="#00001B" transform="translate(905,1013)"/>
<path d="M0 0 C3 1 3 1 3 1 Z " fill="#130044" transform="translate(117,1013)"/>
<path d="" fill="#000013" transform="translate(0,0)"/>
<path d="" fill="#130044" transform="translate(0,0)"/>
<path d="" fill="#000025" transform="translate(0,0)"/>
<path d="" fill="#25003A" transform="translate(0,0)"/>
<path d="" fill="#000029" transform="translate(0,0)"/>
<path d="" fill="#25003C" transform="translate(0,0)"/>
<path d="" fill="#00001D" transform="translate(0,0)"/>
<path d="" fill="#1A003C" transform="translate(0,0)"/>
<path d="" fill="#000011" transform="translate(0,0)"/>
<path d="" fill="#0E0023" transform="translate(0,0)"/>
<path d="" fill="#000000" transform="translate(0,0)"/>
<path d="" fill="#00002A" transform="translate(0,0)"/>
<path d="" fill="#000000" transform="translate(0,0)"/>
<path d="" fill="#000000" transform="translate(0,0)"/>
<path d="" fill="#000000" transform="translate(0,0)"/>
<path d="" fill="#000023" transform="translate(0,0)"/>
<path d="" fill="#00001A" transform="translate(0,0)"/>
<path d="" fill="#000025" transform="translate(0,0)"/>
<path d="" fill="#000015" transform="translate(0,0)"/>
<path d="" fill="#000025" transform="translate(0,0)"/>
<path d="" fill="#000013" transform="translate(0,0)"/>
<path d="" fill="#000013" transform="translate(0,0)"/>
<path d="M0 0 C3 1 3 1 3 1 Z " fill="#000013" transform="translate(905,11)"/>
<path d="M0 0 C3 1 3 1 3 1 Z " fill="#000013" transform="translate(117,11)"/>
<path d="M0 0 C3 1 3 1 3 1 Z " fill="#000014" transform="translate(900,9)"/>
<path d="M0 0 C3 1 3 1 3 1 Z " fill="#000025" transform="translate(122,9)"/>
<path d="M0 0 C3 1 3 1 3 1 Z " fill="#000016" transform="translate(897,8)"/>
<path d="M0 0 C3 1 3 1 3 1 Z " fill="#000025" transform="translate(125,8)"/>
<path d="M0 0 C3 1 3 1 3 1 Z " fill="#00000C" transform="translate(894,7)"/>
<path d="M0 0 C3 1 3 1 3 1 Z " fill="#00000E" transform="translate(885,4)"/>
<path d="M0 0 C3 1 3 1 3 1 Z " fill="#00000E" transform="translate(137,4)"/>
<path d="M0 0 C3 1 3 1 3 1 Z " fill="#000000" transform="translate(873,1)"/>
<path d="M0 0 C3 1 3 1 3 1 Z " fill="#000000" transform="translate(149,1)"/>
<path d="M0 0 C2 1 2 1 2 1 Z " fill="#00002B" transform="translate(892,1018)"/>
<path d="M0 0 C2 1 2 1 2 1 Z " fill="#000015" transform="translate(903,1014)"/>
<path d="M0 0 C2 1 2 1 2 1 Z " fill="#0A004A" transform="translate(120,1014)"/>
<path d="M0 0 C2 1 2 1 2 1 Z " fill="#000040" transform="translate(914,1009)"/>
<path d="M0 0 C2 1 2 1 2 1 Z " fill="#000040" transform="translate(109,1009)"/>
<path d="M0 0 C2 1 2 1 2 1 Z " fill="#000000" transform="translate(916,1008)"/>
<path d="M0 0 C2 1 2 1 2 1 Z " fill="#000040" transform="translate(107,1008)"/>
<path d="M0 0 C2 1 2 1 2 1 Z " fill="#000000" transform="translate(929,1002)"/>
<path d="M0 0 C2 1 2 1 2 1 Z " fill="#000039" transform="translate(932,1000)"/>
<path d="M0 0 C2 1 2 1 2 1 Z " fill="#190039" transform="translate(91,1000)"/>
<path d="M0 0 C2 1 2 1 2 1 Z " fill="#000026" transform="translate(935,998)"/>
<path d="M0 0 C2 1 2 1 2 1 Z " fill="#290039" transform="translate(88,998)"/>
<path d="M0 0 C2 1 2 1 2 1 Z " fill="#00002B" transform="translate(937,997)"/>
<path d="M0 0 C2 1 2 1 2 1 Z " fill="#2D0039" transform="translate(86,997)"/>
<path d="M0 0 C2 1 2 1 2 1 Z " fill="#00070F" transform="translate(940,995)"/>
<path d="M0 0 C2 1 2 1 2 1 Z " fill="#0F0748" transform="translate(83,995)"/>
<path d="M0 0 C2 1 2 1 2 1 Z " fill="#0F071E" transform="translate(80,993)"/>
<path d="M0 0 C2 1 2 1 2 1 Z " fill="#000000" transform="translate(954,985)"/>
<path d="M0 0 C2 1 2 1 2 1 Z " fill="#00002A" transform="translate(69,985)"/>
<path d="M0 0 C2 1 2 1 2 1 Z " fill="#000012" transform="translate(961,979)"/>
<path d="M0 0 C2 1 2 1 2 1 Z " fill="#110019" transform="translate(62,979)"/>
<path d="" fill="#000012" transform="translate(0,0)"/>
<path d="" fill="#100018" transform="translate(0,0)"/>
<path d="" fill="#000000" transform="translate(0,0)"/>
<path d="" fill="#190019" transform="translate(0,0)"/>
<path d="" fill="#000000" transform="translate(0,0)"/>
<path d="" fill="#00070F" transform="translate(0,0)"/>
<path d="" fill="#0F0748" transform="translate(0,0)"/>
<path d="" fill="#00002B" transform="translate(0,0)"/>
<path d="" fill="#0B0037" transform="translate(0,0)"/>
<path d="" fill="#000026" transform="translate(0,0)"/>
<path d="" fill="#250030" transform="translate(0,0)"/>
<path d="" fill="#000039" transform="translate(0,0)"/>
<path d="" fill="#2F002F" transform="translate(0,0)"/>
<path d="" fill="#000000" transform="translate(0,0)"/>
<path d="" fill="#000000" transform="translate(0,0)"/>
<path d="" fill="#000000" transform="translate(0,0)"/>
<path d="" fill="#000040" transform="translate(0,0)"/>
<path d="" fill="#000000" transform="translate(0,0)"/>
<path d="" fill="#000015" transform="translate(0,0)"/>
<path d="" fill="#0A004A" transform="translate(0,0)"/>
<path d="" fill="#00002B" transform="translate(0,0)"/>
<path d="" fill="#250035" transform="translate(0,0)"/>
<path d="" fill="#00000A" transform="translate(0,0)"/>
<path d="" fill="#000015" transform="translate(0,0)"/>
<path d="" fill="#000000" transform="translate(0,0)"/>
<path d="" fill="#000000" transform="translate(0,0)"/>
<path d="" fill="#000000" transform="translate(0,0)"/>
<path d="" fill="#000000" transform="translate(0,0)"/>
<path d="" fill="#000035" transform="translate(0,0)"/>
<path d="" fill="#000010" transform="translate(0,0)"/>
<path d="" fill="#000025" transform="translate(0,0)"/>
<path d="" fill="#00000D" transform="translate(0,0)"/>
<path d="" fill="#000025" transform="translate(0,0)"/>
<path d="" fill="#000707" transform="translate(0,0)"/>
<path d="" fill="#00070F" transform="translate(0,0)"/>
<path d="" fill="#000707" transform="translate(0,0)"/>
<path d="" fill="#000000" transform="translate(0,0)"/>
<path d="" fill="#000000" transform="translate(0,0)"/>
<path d="" fill="#000000" transform="translate(0,0)"/>
<path d="" fill="#000008" transform="translate(0,0)"/>
<path d="" fill="#000810" transform="translate(0,0)"/>
<path d="M0 0 C2 1 2 1 2 1 Z " fill="#000008" transform="translate(961,45)"/>
<path d="M0 0 C2 1 2 1 2 1 Z " fill="#000810" transform="translate(62,45)"/>
<path d="M0 0 C2 1 2 1 2 1 Z " fill="#000000" transform="translate(954,39)"/>
<path d="M0 0 C2 1 2 1 2 1 Z " fill="#000000" transform="translate(69,39)"/>
<path d="M0 0 C2 1 2 1 2 1 Z " fill="#000000" transform="translate(950,36)"/>
<path d="M0 0 C2 1 2 1 2 1 Z " fill="#000000" transform="translate(73,36)"/>
<path d="M0 0 C2 1 2 1 2 1 Z " fill="#000707" transform="translate(940,29)"/>
<path d="M0 0 C2 1 2 1 2 1 Z " fill="#00070F" transform="translate(83,29)"/>
<path d="M0 0 C2 1 2 1 2 1 Z " fill="#00000B" transform="translate(937,27)"/>
<path d="M0 0 C2 1 2 1 2 1 Z " fill="#000025" transform="translate(86,27)"/>
<path d="M0 0 C2 1 2 1 2 1 Z " fill="#00000B" transform="translate(935,26)"/>
<path d="M0 0 C2 1 2 1 2 1 Z " fill="#000025" transform="translate(88,26)"/>
<path d="M0 0 C2 1 2 1 2 1 Z " fill="#000000" transform="translate(932,24)"/>
<path d="M0 0 C2 1 2 1 2 1 Z " fill="#000015" transform="translate(91,24)"/>
<path d="M0 0 C2 1 2 1 2 1 Z " fill="#000000" transform="translate(929,22)"/>
<path d="M0 0 C2 1 2 1 2 1 Z " fill="#000000" transform="translate(94,22)"/>
<path d="M0 0 C2 1 2 1 2 1 Z " fill="#000000" transform="translate(914,15)"/>
<path d="M0 0 C2 1 2 1 2 1 Z " fill="#00000A" transform="translate(903,10)"/>
<path d="M0 0 C2 1 2 1 2 1 Z " fill="#00000A" transform="translate(120,10)"/>
<path d="M0 0 C2 1 2 1 2 1 Z " fill="#000010" transform="translate(892,6)"/>
<path d="" fill="#000000" transform="translate(0,0)"/>
<path d="" fill="#000000" transform="translate(0,0)"/>
<path d="" fill="#000000" transform="translate(0,0)"/>
<path d="" fill="#000000" transform="translate(0,0)"/>
<path d="" fill="#000000" transform="translate(0,0)"/>
<path d="" fill="#000055" transform="translate(0,0)"/>
<path d="" fill="#000000" transform="translate(0,0)"/>
<path d="" fill="#000055" transform="translate(0,0)"/>
<path d="" fill="#000000" transform="translate(0,0)"/>
<path d="" fill="#000033" transform="translate(0,0)"/>
<path d="" fill="#330033" transform="translate(0,0)"/>
<path d="" fill="#00002B" transform="translate(0,0)"/>
<path d="" fill="#2B002B" transform="translate(0,0)"/>
<path d="" fill="#000020" transform="translate(0,0)"/>
<path d="" fill="#1C0039" transform="translate(0,0)"/>
<path d="" fill="#000024" transform="translate(0,0)"/>
<path d="" fill="#200040" transform="translate(0,0)"/>
<path d="" fill="#330033" transform="translate(0,0)"/>
<path d="" fill="#00002B" transform="translate(0,0)"/>
<path d="" fill="#240049" transform="translate(0,0)"/>
<path d="" fill="#000024" transform="translate(0,0)"/>
<path d="" fill="#200040" transform="translate(0,0)"/>
<path d="" fill="#000000" transform="translate(0,0)"/>
<path d="" fill="#000000" transform="translate(0,0)"/>
<path d="" fill="#000000" transform="translate(0,0)"/>
<path d="" fill="#000000" transform="translate(0,0)"/>
<path d="" fill="#000000" transform="translate(0,0)"/>
<path d="" fill="#000000" transform="translate(0,0)"/>
<path d="" fill="#000000" transform="translate(0,0)"/>
<path d="" fill="#000040" transform="translate(0,0)"/>
<path d="" fill="#00002B" transform="translate(0,0)"/>
<path d="" fill="#2B002B" transform="translate(0,0)"/>
<path d="" fill="#000020" transform="translate(0,0)"/>
<path d="" fill="#200040" transform="translate(0,0)"/>
<path d="" fill="#00001C" transform="translate(0,0)"/>
<path d="" fill="#1C0039" transform="translate(0,0)"/>
<path d="" fill="#00001C" transform="translate(0,0)"/>
<path d="" fill="#1A0033" transform="translate(0,0)"/>
<path d="" fill="#000033" transform="translate(0,0)"/>
<path d="" fill="#2B002B" transform="translate(0,0)"/>
<path d="" fill="#000024" transform="translate(0,0)"/>
<path d="" fill="#1C0039" transform="translate(0,0)"/>
<path d="" fill="#00002B" transform="translate(0,0)"/>
<path d="" fill="#240049" transform="translate(0,0)"/>
<path d="" fill="#000033" transform="translate(0,0)"/>
<path d="" fill="#2B002B" transform="translate(0,0)"/>
<path d="" fill="#000000" transform="translate(0,0)"/>
<path d="" fill="#400040" transform="translate(0,0)"/>
<path d="" fill="#000000" transform="translate(0,0)"/>
<path d="" fill="#000055" transform="translate(0,0)"/>
<path d="" fill="#000000" transform="translate(0,0)"/>
<path d="" fill="#000000" transform="translate(0,0)"/>
<path d="" fill="#000000" transform="translate(0,0)"/>
<path d="" fill="#000000" transform="translate(0,0)"/>
<path d="" fill="#000000" transform="translate(0,0)"/>
<path d="" fill="#000000" transform="translate(0,0)"/>
<path d="" fill="#000000" transform="translate(0,0)"/>
<path d="" fill="#000000" transform="translate(0,0)"/>
<path d="" fill="#000055" transform="translate(0,0)"/>
<path d="" fill="#000033" transform="translate(0,0)"/>
<path d="" fill="#400040" transform="translate(0,0)"/>
<path d="" fill="#00002B" transform="translate(0,0)"/>
<path d="" fill="#2B002B" transform="translate(0,0)"/>
<path d="" fill="#000024" transform="translate(0,0)"/>
<path d="" fill="#240049" transform="translate(0,0)"/>
<path d="" fill="#000033" transform="translate(0,0)"/>
<path d="" fill="#330033" transform="translate(0,0)"/>
<path d="" fill="#00001C" transform="translate(0,0)"/>
<path d="" fill="#17002E" transform="translate(0,0)"/>
<path d="" fill="#00001C" transform="translate(0,0)"/>
<path d="" fill="#1A0033" transform="translate(0,0)"/>
<path d="" fill="#000020" transform="translate(0,0)"/>
<path d="" fill="#1C0039" transform="translate(0,0)"/>
<path d="" fill="#00002B" transform="translate(0,0)"/>
<path d="" fill="#200040" transform="translate(0,0)"/>
<path d="" fill="#000000" transform="translate(0,0)"/>
<path d="" fill="#330033" transform="translate(0,0)"/>
<path d="" fill="#000000" transform="translate(0,0)"/>
<path d="" fill="#000055" transform="translate(0,0)"/>
<path d="" fill="#000000" transform="translate(0,0)"/>
<path d="" fill="#000000" transform="translate(0,0)"/>
<path d="" fill="#000000" transform="translate(0,0)"/>
<path d="" fill="#000024" transform="translate(0,0)"/>
<path d="" fill="#000040" transform="translate(0,0)"/>
<path d="" fill="#00002B" transform="translate(0,0)"/>
<path d="" fill="#330033" transform="translate(0,0)"/>
<path d="" fill="#000024" transform="translate(0,0)"/>
<path d="" fill="#240024" transform="translate(0,0)"/>
<path d="" fill="#000020" transform="translate(0,0)"/>
<path d="" fill="#1C0039" transform="translate(0,0)"/>
<path d="" fill="#00002B" transform="translate(0,0)"/>
<path d="" fill="#240024" transform="translate(0,0)"/>
<path d="" fill="#000033" transform="translate(0,0)"/>
<path d="" fill="#2B002B" transform="translate(0,0)"/>
<path d="" fill="#000000" transform="translate(0,0)"/>
<path d="" fill="#400040" transform="translate(0,0)"/>
<path d="" fill="#000000" transform="translate(0,0)"/>
<path d="" fill="#000040" transform="translate(0,0)"/>
<path d="" fill="#000000" transform="translate(0,0)"/>
<path d="" fill="#000055" transform="translate(0,0)"/>
<path d="" fill="#000000" transform="translate(0,0)"/>
<path d="" fill="#000000" transform="translate(0,0)"/>
<path d="" fill="#000000" transform="translate(0,0)"/>
<path d="" fill="#000000" transform="translate(0,0)"/>
<path d="" fill="#000000" transform="translate(0,0)"/>
<path d="" fill="#000000" transform="translate(0,0)"/>
<path d="" fill="#000000" transform="translate(0,0)"/>
<path d="" fill="#000000" transform="translate(0,0)"/>
<path d="" fill="#000000" transform="translate(0,0)"/>
<path d="" fill="#000000" transform="translate(0,0)"/>
<path d="" fill="#000000" transform="translate(0,0)"/>
<path d="" fill="#000033" transform="translate(0,0)"/>
<path d="" fill="#000000" transform="translate(0,0)"/>
<path d="" fill="#000000" transform="translate(0,0)"/>
<path d="" fill="#000024" transform="translate(0,0)"/>
<path d="" fill="#000000" transform="translate(0,0)"/>
<path d="" fill="#00002B" transform="translate(0,0)"/>
<path d="" fill="#00001C" transform="translate(0,0)"/>
<path d="" fill="#00001C" transform="translate(0,0)"/>
<path d="" fill="#000020" transform="translate(0,0)"/>
<path d="" fill="#000024" transform="translate(0,0)"/>
<path d="" fill="#000000" transform="translate(0,0)"/>
<path d="" fill="#000024" transform="translate(0,0)"/>
<path d="" fill="#000024" transform="translate(0,0)"/>
<path d="" fill="#000020" transform="translate(0,0)"/>
<path d="" fill="#000033" transform="translate(0,0)"/>
<path d="" fill="#000000" transform="translate(0,0)"/>
<path d="" fill="#000000" transform="translate(0,0)"/>
<path d="" fill="#000000" transform="translate(0,0)"/>
<path d="" fill="#000000" transform="translate(0,0)"/>
<path d="" fill="#000000" transform="translate(0,0)"/>
<path d="" fill="#000000" transform="translate(0,0)"/>
<path d="" fill="#000033" transform="translate(0,0)"/>
<path d="" fill="#00002B" transform="translate(0,0)"/>
<path d="" fill="#000020" transform="translate(0,0)"/>
<path d="" fill="#000020" transform="translate(0,0)"/>
<path d="" fill="#00001C" transform="translate(0,0)"/>
<path d="" fill="#00001C" transform="translate(0,0)"/>
<path d="" fill="#00001A" transform="translate(0,0)"/>
<path d="" fill="#00001A" transform="translate(0,0)"/>
<path d="" fill="#000017" transform="translate(0,0)"/>
<path d="" fill="#000000" transform="translate(0,0)"/>
<path d="" fill="#00002B" transform="translate(0,0)"/>
<path d="" fill="#00001C" transform="translate(0,0)"/>
<path d="" fill="#00001C" transform="translate(0,0)"/>
<path d="" fill="#000024" transform="translate(0,0)"/>
<path d="" fill="#000024" transform="translate(0,0)"/>
<path d="" fill="#000000" transform="translate(0,0)"/>
<path d="" fill="#00002B" transform="translate(0,0)"/>
<path d="" fill="#000000" transform="translate(0,0)"/>
<path d="" fill="#000000" transform="translate(0,0)"/>
<path d="" fill="#000000" transform="translate(0,0)"/>
<path d="" fill="#000000" transform="translate(0,0)"/>
<path d="" fill="#000000" transform="translate(0,0)"/>
<path d="" fill="#000000" transform="translate(0,0)"/>
<path d="" fill="#000000" transform="translate(0,0)"/>
<path d="" fill="#000000" transform="translate(0,0)"/>
<path d="" fill="#000000" transform="translate(0,0)"/>
<path d="" fill="#000000" transform="translate(0,0)"/>
<path d="" fill="#000000" transform="translate(0,0)"/>
<path d="" fill="#000000" transform="translate(0,0)"/>
<path d="" fill="#000000" transform="translate(0,0)"/>
<path d="" fill="#000000" transform="translate(0,0)"/>
<path d="" fill="#000000" transform="translate(0,0)"/>
<path d="" fill="#000000" transform="translate(0,0)"/>
<path d="" fill="#00002B" transform="translate(0,0)"/>
<path d="" fill="#000000" transform="translate(0,0)"/>
<path d="" fill="#000024" transform="translate(0,0)"/>
<path d="" fill="#000024" transform="translate(0,0)"/>
<path d="" fill="#00001C" transform="translate(0,0)"/>
<path d="" fill="#000000" transform="translate(0,0)"/>
<path d="" fill="#00002B" transform="translate(0,0)"/>
<path d="" fill="#000017" transform="translate(0,0)"/>
<path d="" fill="#000017" transform="translate(0,0)"/>
<path d="" fill="#00001A" transform="translate(0,0)"/>
<path d="" fill="#00001A" transform="translate(0,0)"/>
<path d="" fill="#00001C" transform="translate(0,0)"/>
<path d="" fill="#00001C" transform="translate(0,0)"/>
<path d="" fill="#000020" transform="translate(0,0)"/>
<path d="" fill="#000020" transform="translate(0,0)"/>
<path d="" fill="#000000" transform="translate(0,0)"/>
<path d="" fill="#000033" transform="translate(0,0)"/>
<path d="" fill="#000000" transform="translate(0,0)"/>
<path d="" fill="#000000" transform="translate(0,0)"/>
<path d="" fill="#000000" transform="translate(0,0)"/>
<path d="" fill="#000000" transform="translate(0,0)"/>
<path d="" fill="#000000" transform="translate(0,0)"/>
<path d="" fill="#000033" transform="translate(0,0)"/>
<path d="" fill="#000000" transform="translate(0,0)"/>
<path d="" fill="#000024" transform="translate(0,0)"/>
<path d="" fill="#000024" transform="translate(0,0)"/>
<path d="" fill="#000024" transform="translate(0,0)"/>
<path d="" fill="#00001C" transform="translate(0,0)"/>
<path d="" fill="#00001C" transform="translate(0,0)"/>
<path d="" fill="#000024" transform="translate(0,0)"/>
<path d="" fill="#00002B" transform="translate(0,0)"/>
<path d="" fill="#000000" transform="translate(0,0)"/>
<path d="" fill="#000024" transform="translate(0,0)"/>
<path d="" fill="#000000" transform="translate(0,0)"/>
<path d="" fill="#000033" transform="translate(0,0)"/>
<path d="" fill="#000000" transform="translate(0,0)"/>
<path d="" fill="#000000" transform="translate(0,0)"/>
<path d="" fill="#000000" transform="translate(0,0)"/>
<path d="" fill="#000000" transform="translate(0,0)"/>
<path d="" fill="#000000" transform="translate(0,0)"/>
<path d="" fill="#000000" transform="translate(0,0)"/>
<path d="" fill="#000000" transform="translate(0,0)"/>
<path d="" fill="#000000" transform="translate(0,0)"/>
</svg>
